<svg width="117" height="54" viewBox="0 0 117 54" fill="none" xmlns="http://www.w3.org/2000/svg">
<g clip-path="url(#clip0_40_2)">
<path d="M37.0673 19.6702L21.0238 27.2895C20.5218 27.5276 19.9586 27.6056 19.4107 27.5129C18.8629 27.4203 18.3567 27.1614 17.9609 26.7714L11.8945 20.7909C11.4978 20.4004 11.2309 19.8971 11.1303 19.3496C11.0297 18.8021 11.1001 18.2368 11.3321 17.7307L18.7297 1.58197C18.9109 1.18608 19.1848 0.839698 19.5283 0.572175C19.8718 0.304652 20.2747 0.123879 20.7029 0.0451728C21.1311 -0.0335334 21.5719 -0.00784923 21.9881 0.120045C22.4042 0.24794 22.7834 0.474276 23.0935 0.779873L37.8071 15.2898C38.1183 15.5954 38.351 15.9717 38.4856 16.3867C38.6201 16.8016 38.6524 17.2429 38.5798 17.673C38.5071 18.103 38.3317 18.5092 38.0684 18.857C37.805 19.2047 37.4616 19.4837 37.0673 19.6702Z" fill="#613FE5"/>
<path d="M35.9258 52.5857L20.0569 60.1219C19.5548 60.36 18.9916 60.438 18.4438 60.3453C17.8959 60.2526 17.3897 59.9937 16.9939 59.6037L1.23856 44.0728C0.842333 43.6829 0.575794 43.1803 0.475165 42.6336C0.374536 42.0868 0.444697 41.5223 0.676119 41.0168L3.05334 35.8232L7.9865 25.044C8.16731 24.6468 8.4414 24.2992 8.78545 24.0308C9.1295 23.7624 9.53332 23.5811 9.96253 23.5023C10.3917 23.4235 10.8336 23.4497 11.2506 23.5784C11.6675 23.7072 12.0472 23.9348 12.3572 24.2419L17.2626 29.0767L36.6655 48.208C36.9761 48.5137 37.2084 48.8898 37.3426 49.3044C37.4767 49.719 37.5089 50.1599 37.4363 50.5896C37.3637 51.0193 37.1884 51.4251 36.9255 51.7726C36.6625 52.1201 36.3196 52.399 35.9258 52.5857Z" fill="#613FE5"/>
</g>
<path d="M42.5212 32.354V17.5916H48.1725C49.2393 17.5916 50.1259 17.7598 50.8323 18.0962C51.5435 18.4278 52.0745 18.8819 52.4253 19.4585C52.7809 20.0352 52.9587 20.6887 52.9587 21.4192C52.9587 22.0198 52.8434 22.534 52.6127 22.9617C52.382 23.3846 52.0721 23.7282 51.6828 23.9925C51.2936 24.2568 50.8587 24.4466 50.3782 24.5619V24.7061C50.902 24.7349 51.4041 24.8959 51.8847 25.189C52.37 25.4774 52.7665 25.8858 53.074 26.4144C53.3816 26.943 53.5353 27.5822 53.5353 28.3318C53.5353 29.0959 53.3503 29.7831 52.9803 30.3933C52.6103 30.9988 52.0529 31.477 51.308 31.8278C50.5632 32.1786 49.6261 32.354 48.4968 32.354H42.5212ZM45.1955 30.1194H48.0715C49.0422 30.1194 49.7414 29.9344 50.1691 29.5644C50.6016 29.1896 50.8179 28.709 50.8179 28.1228C50.8179 27.6855 50.7097 27.2914 50.4935 26.9406C50.2772 26.585 49.9697 26.3063 49.5708 26.1045C49.172 25.8978 48.6962 25.7945 48.1436 25.7945H45.1955V30.1194ZM45.1955 23.8699H47.8409C48.3022 23.8699 48.7179 23.7858 49.0879 23.6177C49.4579 23.4447 49.7486 23.202 49.9601 22.8896C50.1763 22.5725 50.2845 22.1976 50.2845 21.7652C50.2845 21.1933 50.0826 20.7224 49.679 20.3523C49.2801 19.9823 48.6866 19.7973 47.8985 19.7973H45.1955V23.8699Z" fill="white"/>
<path d="M55.8618 32.354V17.5916H58.536V23.8411H65.3766V17.5916H68.058V32.354H65.3766V26.0829H58.536V32.354H55.8618Z" fill="white"/>
<path d="M72.8623 32.354H70.0078L75.2049 17.5916H78.5063L83.7106 32.354H80.8562L76.9133 20.6191H76.7979L72.8623 32.354ZM72.956 26.5658H80.7408V28.7138H72.956V26.5658Z" fill="white"/>
<path d="M85.9451 17.5916L89.7871 29.2112H89.9385L93.7732 17.5916H96.7142L91.5098 32.354H88.2085L83.0114 17.5916H85.9451Z" fill="white"/>
<path d="M101.333 17.5916V32.354H98.6586V17.5916H101.333Z" fill="white"/>
<path d="M104.229 32.354V17.5916H106.903V24.3745H107.083L112.842 17.5916H116.108L110.399 24.2159L116.158 32.354H112.943L108.539 26.0252L106.903 27.957V32.354H104.229Z" fill="white"/>
<path d="M44.28 44.0698H42.5049V38.3178H44.3586C44.9166 38.3178 45.394 38.433 45.791 38.6633C46.1879 38.8917 46.4922 39.2203 46.7038 39.6491C46.9154 40.076 47.0212 40.5872 47.0212 41.1826C47.0212 41.7818 46.9144 42.2976 46.701 42.7301C46.4875 43.1608 46.1767 43.4922 45.7685 43.7244C45.3603 43.9547 44.8641 44.0698 44.28 44.0698ZM43.2014 43.452H44.235C44.7106 43.452 45.1048 43.3602 45.4174 43.1767C45.7301 42.9932 45.9632 42.732 46.1168 42.3931C46.2703 42.0542 46.3471 41.6507 46.3471 41.1826C46.3471 40.7182 46.2713 40.3185 46.1196 39.9833C45.9679 39.6463 45.7414 39.3879 45.4399 39.2081C45.1385 39.0265 44.763 38.9357 44.3137 38.9357H43.2014V43.452Z" fill="white"/>
<path d="M55.7769 44.1597C55.3612 44.1597 55.0027 44.068 54.7012 43.8845C54.4016 43.6991 54.1704 43.4407 54.0075 43.1093C53.8465 42.776 53.766 42.3884 53.766 41.9465C53.766 41.5046 53.8465 41.1152 54.0075 40.7782C54.1704 40.4392 54.397 40.1752 54.6872 39.9861C54.9793 39.7951 55.3201 39.6996 55.7095 39.6996C55.9342 39.6996 56.1561 39.7371 56.3752 39.812C56.5942 39.8869 56.7936 40.0086 56.9734 40.1771C57.1531 40.3438 57.2964 40.5647 57.4031 40.8399C57.5098 41.1152 57.5632 41.4541 57.5632 41.8567V42.1375H54.2378V41.5646H56.8891C56.8891 41.3212 56.8405 41.104 56.7431 40.913C56.6476 40.722 56.5109 40.5713 56.333 40.4608C56.157 40.3503 55.9492 40.2951 55.7095 40.2951C55.4455 40.2951 55.2171 40.3606 55.0242 40.4917C54.8332 40.6209 54.6862 40.7894 54.5833 40.9972C54.4803 41.2051 54.4288 41.4279 54.4288 41.6657V42.0476C54.4288 42.3734 54.485 42.6496 54.5973 42.8762C54.7115 43.1009 54.8697 43.2722 55.072 43.3902C55.2742 43.5063 55.5092 43.5643 55.7769 43.5643C55.9511 43.5643 56.1083 43.54 56.2488 43.4913C56.3911 43.4407 56.5137 43.3658 56.6167 43.2666C56.7197 43.1655 56.7993 43.04 56.8554 42.8902L57.4958 43.07C57.4284 43.2872 57.3151 43.4782 57.156 43.6429C56.9968 43.8058 56.8002 43.9332 56.5661 44.0249C56.3321 44.1148 56.069 44.1597 55.7769 44.1597Z" fill="white"/>
<path d="M67.4958 40.722L66.9003 40.8905C66.8629 40.7913 66.8077 40.6948 66.7346 40.6012C66.6635 40.5057 66.5661 40.4271 66.4425 40.3653C66.319 40.3035 66.1607 40.2726 65.9679 40.2726C65.7039 40.2726 65.4839 40.3335 65.3079 40.4552C65.1337 40.575 65.0467 40.7276 65.0467 40.913C65.0467 41.0777 65.1066 41.2079 65.2264 41.3034C65.3462 41.3989 65.5335 41.4784 65.7881 41.5421L66.4285 41.6994C66.8142 41.793 67.1016 41.9362 67.2907 42.1291C67.4799 42.3201 67.5744 42.5663 67.5744 42.8678C67.5744 43.1149 67.5033 43.3359 67.361 43.5306C67.2205 43.7253 67.0239 43.8789 66.7712 43.9912C66.5184 44.1035 66.2244 44.1597 65.8892 44.1597C65.4492 44.1597 65.085 44.0642 64.7967 43.8732C64.5083 43.6823 64.3258 43.4033 64.249 43.0363L64.8781 42.879C64.9381 43.1112 65.0513 43.2853 65.218 43.4014C65.3865 43.5175 65.6065 43.5755 65.878 43.5755C66.187 43.5755 66.4322 43.51 66.6139 43.3789C66.7974 43.246 66.8891 43.0868 66.8891 42.9015C66.8891 42.7517 66.8367 42.6262 66.7318 42.5251C66.627 42.4221 66.4659 42.3454 66.2487 42.2948L65.5297 42.1263C65.1347 42.0327 64.8444 41.8876 64.6591 41.691C64.4756 41.4925 64.3838 41.2444 64.3838 40.9467C64.3838 40.7033 64.4522 40.4879 64.5889 40.3007C64.7274 40.1135 64.9156 39.9665 65.1534 39.8597C65.3931 39.753 65.6646 39.6996 65.9679 39.6996C66.3948 39.6996 66.73 39.7933 66.9734 39.9805C67.2187 40.1678 67.3928 40.4149 67.4958 40.722Z" fill="white"/>
<path d="M74.4407 44.0698V39.7558H75.1035V44.0698H74.4407ZM74.7777 39.0368C74.6485 39.0368 74.5371 38.9928 74.4435 38.9048C74.3517 38.8168 74.3059 38.711 74.3059 38.5874C74.3059 38.4639 74.3517 38.3581 74.4435 38.2701C74.5371 38.1821 74.6485 38.1381 74.7777 38.1381C74.9069 38.1381 75.0174 38.1821 75.1091 38.2701C75.2028 38.3581 75.2496 38.4639 75.2496 38.5874C75.2496 38.711 75.2028 38.8168 75.1091 38.9048C75.0174 38.9928 74.9069 39.0368 74.7777 39.0368Z" fill="white"/>
<path d="M83.9274 45.7775C83.6072 45.7775 83.332 45.7363 83.1017 45.6539C82.8714 45.5734 82.6794 45.4667 82.5259 45.3337C82.3742 45.2027 82.2535 45.0622 82.1636 44.9124L82.6916 44.5417C82.7515 44.6203 82.8274 44.7102 82.9191 44.8113C83.0108 44.9143 83.1363 45.0032 83.2955 45.0781C83.4565 45.1549 83.6671 45.1933 83.9274 45.1933C84.2757 45.1933 84.5631 45.109 84.7896 44.9405C85.0162 44.772 85.1295 44.508 85.1295 44.1485V43.2722H85.0733C85.0246 43.3508 84.9553 43.4482 84.8655 43.5643C84.7775 43.6785 84.6501 43.7806 84.4835 43.8704C84.3187 43.9584 84.0959 44.0024 83.815 44.0024C83.4668 44.0024 83.1541 43.9201 82.877 43.7553C82.6017 43.5905 82.3836 43.3508 82.2226 43.0363C82.0634 42.7217 81.9838 42.3397 81.9838 41.8904C81.9838 41.4485 82.0615 41.0637 82.2169 40.736C82.3724 40.4065 82.5886 40.1518 82.8657 39.9721C83.1429 39.7905 83.463 39.6996 83.8263 39.6996C84.1071 39.6996 84.33 39.7465 84.4947 39.8401C84.6614 39.9318 84.7887 40.0367 84.8767 40.1546C84.9666 40.2707 85.0359 40.3662 85.0845 40.4411H85.1519V39.7558H85.7923V44.1934C85.7923 44.5642 85.708 44.8656 85.5395 45.0978C85.3729 45.3318 85.1482 45.5032 84.8655 45.6118C84.5846 45.7222 84.2719 45.7775 83.9274 45.7775ZM83.9049 43.407C84.1708 43.407 84.3955 43.3462 84.579 43.2245C84.7625 43.1027 84.902 42.9277 84.9975 42.6992C85.093 42.4708 85.1407 42.1974 85.1407 41.8791C85.1407 41.5683 85.0939 41.294 85.0003 41.0562C84.9067 40.8184 84.7681 40.6321 84.5846 40.4973C84.4011 40.3625 84.1745 40.2951 83.9049 40.2951C83.6241 40.2951 83.39 40.3662 83.2028 40.5085C83.0174 40.6508 82.8779 40.8418 82.7843 41.0815C82.6925 41.3212 82.6467 41.587 82.6467 41.8791C82.6467 42.1787 82.6935 42.4437 82.7871 42.674C82.8826 42.9024 83.023 43.0822 83.2084 43.2132C83.3956 43.3424 83.6278 43.407 83.9049 43.407Z" fill="white"/>
<path d="M93.537 41.4747V44.0698H92.8741V39.7558H93.5145V40.4299H93.5707C93.6718 40.2108 93.8253 40.0348 94.0313 39.9019C94.2373 39.7671 94.5031 39.6996 94.8289 39.6996C95.121 39.6996 95.3766 39.7596 95.5957 39.8794C95.8148 39.9974 95.9851 40.1771 96.1069 40.4187C96.2286 40.6583 96.2894 40.9617 96.2894 41.3286V44.0698H95.6266V41.3736C95.6266 41.0347 95.5386 40.7707 95.3626 40.5816C95.1866 40.3906 94.945 40.2951 94.6379 40.2951C94.4264 40.2951 94.2372 40.3409 94.0706 40.4327C93.9058 40.5244 93.7757 40.6583 93.6802 40.8343C93.5847 41.0103 93.537 41.2238 93.537 41.4747Z" fill="white"/>
<path d="M105.178 44.1597C104.762 44.1597 104.404 44.068 104.102 43.8845C103.803 43.6991 103.571 43.4407 103.408 43.1093C103.247 42.776 103.167 42.3884 103.167 41.9465C103.167 41.5046 103.247 41.1152 103.408 40.7782C103.571 40.4392 103.798 40.1752 104.088 39.9861C104.38 39.7951 104.721 39.6996 105.11 39.6996C105.335 39.6996 105.557 39.7371 105.776 39.812C105.995 39.8869 106.195 40.0086 106.374 40.1771C106.554 40.3438 106.697 40.5647 106.804 40.8399C106.911 41.1152 106.964 41.4541 106.964 41.8567V42.1375H103.639V41.5646H106.29C106.29 41.3212 106.241 41.104 106.144 40.913C106.049 40.722 105.912 40.5713 105.734 40.4608C105.558 40.3503 105.35 40.2951 105.11 40.2951C104.846 40.2951 104.618 40.3606 104.425 40.4917C104.234 40.6209 104.087 40.7894 103.984 40.9972C103.881 41.2051 103.83 41.4279 103.83 41.6657V42.0476C103.83 42.3734 103.886 42.6496 103.998 42.8762C104.112 43.1009 104.271 43.2722 104.473 43.3902C104.675 43.5063 104.91 43.5643 105.178 43.5643C105.352 43.5643 105.509 43.54 105.65 43.4913C105.792 43.4407 105.915 43.3658 106.018 43.2666C106.121 43.1655 106.2 43.04 106.256 42.8902L106.897 43.07C106.829 43.2872 106.716 43.4782 106.557 43.6429C106.398 43.8058 106.201 43.9332 105.967 44.0249C105.733 44.1148 105.47 44.1597 105.178 44.1597Z" fill="white"/>
<path d="M113.841 44.0698V39.7558H114.481V40.4074H114.526C114.605 40.194 114.747 40.0208 114.953 39.8878C115.159 39.7549 115.391 39.6884 115.65 39.6884C115.698 39.6884 115.759 39.6894 115.832 39.6912C115.905 39.6931 115.961 39.6959 115.998 39.6996V40.3737C115.976 40.3681 115.924 40.3597 115.844 40.3484C115.765 40.3353 115.682 40.3288 115.594 40.3288C115.384 40.3288 115.197 40.3728 115.032 40.4608C114.869 40.5469 114.74 40.6667 114.644 40.8203C114.551 40.9719 114.504 41.1451 114.504 41.3399V44.0698H113.841Z" fill="white"/>
<defs>
<clipPath id="clip0_40_2">
<rect width="34.145" height="54" fill="white" transform="translate(0.430939)"/>
</clipPath>
</defs>
</svg>
