<svg width="218" height="218" viewBox="0 0 218 218" fill="none" xmlns="http://www.w3.org/2000/svg">
<circle cx="109" cy="109" r="108" fill="#110E15" stroke="white" stroke-width="2"/>
<path d="M98.9986 180.111L95.6984 195.348L85.7921 193.184L86.2933 190.871L93.4404 192.432L94.3363 188.295L87.7024 186.846L88.2035 184.532L94.8375 185.981L95.7382 181.822L88.5316 180.248L89.0328 177.934L98.9986 180.111Z" fill="white"/>
<path d="M73.3363 188.562L72.843 181.908L72.7344 181.853L67.0919 185.39L64.2208 183.932L72.0096 179.145L71.1649 169.973L74.0834 171.455L74.6277 178.093L74.7363 178.148L80.3821 174.654L83.2871 176.13L75.3897 180.862L76.2209 190.027L73.3363 188.562Z" fill="white"/>
<path d="M66.0749 166.303L55.7226 177.961L51.3676 174.06C50.4754 173.261 49.8752 172.424 49.5669 171.548C49.2548 170.669 49.2032 169.799 49.4122 168.937C49.614 168.075 50.0435 167.274 50.7006 166.534C51.3644 165.787 52.1111 165.263 52.9404 164.963C53.7698 164.664 54.639 164.621 55.5479 164.836C56.4535 165.054 57.3543 165.565 58.2503 166.367L61.1366 168.952L59.5949 170.688L56.9921 168.357C56.4704 167.89 55.9623 167.598 55.4679 167.483C54.9735 167.367 54.5053 167.397 54.0635 167.574C53.6179 167.747 53.2114 168.04 52.8441 168.454C52.4768 168.868 52.2345 169.305 52.1174 169.765C51.9965 170.222 52.0267 170.689 52.2082 171.165C52.3825 171.641 52.7323 172.115 53.2578 172.585L55.1858 174.312L63.9711 164.419L66.0749 166.303Z" fill="white"/>
<path d="M53.2888 153.566L40.444 162.402L38.8526 160.068L49.7468 152.574L45.8777 146.901L47.8282 145.56L53.2888 153.566Z" fill="white"/>
<path d="M32.6617 129.268C34.2444 128.705 35.7046 128.52 37.0423 128.712C38.3736 128.901 39.5179 129.398 40.4752 130.205C41.4309 131.007 42.1357 132.052 42.5899 133.339C43.0441 134.627 43.1522 135.886 42.9141 137.118C42.6696 138.347 42.0902 139.458 41.176 140.452C40.2552 141.442 39.006 142.218 37.4281 142.779C35.8455 143.342 34.3885 143.529 33.0572 143.34C31.7194 143.148 30.5727 142.652 29.6171 141.85C28.6598 141.043 27.9541 139.996 27.4999 138.708C27.0457 137.421 26.9385 136.164 27.1782 134.936C27.4163 133.704 27.9956 132.593 28.9164 131.603C29.8306 130.61 31.0791 129.832 32.6617 129.268ZM33.6064 131.946C32.4923 132.343 31.6144 132.852 30.9726 133.473C30.3244 134.092 29.9123 134.777 29.7364 135.529C29.5556 136.283 29.6062 137.059 29.8882 137.859C30.1702 138.658 30.6176 139.293 31.2306 139.765C31.8388 140.238 32.5894 140.512 33.4825 140.587C34.369 140.66 35.3694 140.498 36.4834 140.101C37.5975 139.705 38.4786 139.198 39.1269 138.579C39.7686 137.957 40.1799 137.27 40.3606 136.516C40.5366 135.764 40.4836 134.988 40.2016 134.189C39.9197 133.39 39.4746 132.754 38.8664 132.28C38.2534 131.809 37.5036 131.537 36.6171 131.465C35.724 131.389 34.7204 131.55 33.6064 131.946Z" fill="white"/>
<path d="M38.8193 119.955L23.2655 121.024L22.8681 115.191C22.7867 113.996 22.9259 112.98 23.2859 112.141C23.6456 111.297 24.1859 110.642 24.9069 110.175C25.6226 109.704 26.4766 109.434 27.469 109.366C28.4664 109.297 29.3467 109.451 30.1098 109.825C30.8675 110.196 31.4743 110.777 31.9302 111.57C32.381 112.363 32.6471 113.357 32.7285 114.552L33.0115 118.706L30.6724 118.867L30.4152 115.092C30.3676 114.394 30.2324 113.828 30.0097 113.396C29.7819 112.964 29.4734 112.654 29.0842 112.467C28.6896 112.276 28.2164 112.199 27.6646 112.237C27.1127 112.275 26.6492 112.416 26.2742 112.661C25.8941 112.905 25.618 113.258 25.4458 113.717C25.2686 114.177 25.204 114.759 25.2519 115.462L25.4278 118.045L38.6273 117.138L38.8193 119.955ZM31.224 112.404L38.0095 108.069L38.2237 111.214L31.4336 115.48L31.224 112.404Z" fill="white"/>
<path d="M38.488 101.889L23.1506 99.0911L24.9552 89.1131L27.2843 89.5379L25.9823 96.7368L30.1462 97.4963L31.3546 90.8143L33.6837 91.2391L32.4753 97.9211L36.6616 98.6847L37.9744 91.4259L40.3034 91.8507L38.488 101.889Z" fill="white"/>
<path d="M34.5616 69.9826L32.5591 68.7198L39.1537 58.1729L41.1563 59.4358L38.6016 63.5216L49.7862 70.5749L48.301 72.9502L37.1163 65.8969L34.5616 69.9826Z" fill="white"/>
<path d="M56.3072 61.5883L45.7737 50.0944L47.8478 48.1774L52.307 53.0432L57.6122 48.1397L53.153 43.2739L55.2326 41.3517L65.7661 52.8455L63.6865 54.7677L59.2118 49.8851L53.9066 54.7886L58.3813 59.6713L56.3072 61.5883Z" fill="white"/>
<path d="M71.5224 48.94L64.2938 35.1266L73.2614 30.3936L74.3591 32.4913L67.8892 35.906L69.8517 39.6561L75.857 36.4866L76.9547 38.5842L70.9494 41.7537L72.9225 45.5241L79.4461 42.081L80.5438 44.1786L71.5224 48.94Z" fill="white"/>
<path d="M108.51 27.7316L105.675 27.9907C105.552 27.5331 105.365 27.1348 105.115 26.7958C104.865 26.4517 104.567 26.1681 104.221 25.9449C103.874 25.7218 103.488 25.5659 103.062 25.4774C102.641 25.3834 102.193 25.3581 101.718 25.4015C100.874 25.4786 100.145 25.7593 99.5314 26.2434C98.9174 26.7225 98.4628 27.3857 98.1676 28.2332C97.8719 29.0756 97.777 30.0806 97.8827 31.2481C97.9903 32.4359 98.2655 33.4198 98.7081 34.1998C99.1554 34.9743 99.7212 35.5393 100.406 35.8946C101.095 36.2445 101.859 36.3811 102.698 36.3044C103.163 36.2619 103.592 36.1616 103.985 36.0033C104.383 35.8396 104.733 35.6216 105.034 35.3494C105.341 35.0768 105.589 34.7534 105.78 34.3793C105.975 34.0047 106.095 33.5861 106.14 33.1233L108.976 32.8795C108.937 33.6271 108.77 34.3405 108.475 35.0198C108.184 35.6986 107.779 36.3116 107.258 36.8586C106.736 37.4006 106.109 37.8452 105.376 38.1925C104.642 38.5347 103.813 38.748 102.888 38.8325C101.524 38.9572 100.277 38.7526 99.1486 38.2187C98.0199 37.6848 97.0933 36.8496 96.3686 35.7131C95.644 34.5766 95.2061 33.1744 95.055 31.5065C94.9035 29.8335 95.0847 28.3747 95.5988 27.1301C96.1123 25.8805 96.8762 24.8909 97.8904 24.1612C98.9047 23.4315 100.089 23.0048 101.443 22.8811C102.308 22.8021 103.122 22.85 103.887 23.0247C104.652 23.1994 105.346 23.4953 105.97 23.9122C106.594 24.3241 107.123 24.8516 107.558 25.4947C107.998 26.1323 108.315 26.878 108.51 27.7316Z" fill="white"/>
<path d="M115.883 38.4652L118.592 23.112L124.348 24.1364C125.528 24.3463 126.481 24.7273 127.208 25.2794C127.94 25.8324 128.446 26.5152 128.725 27.3278C129.01 28.1363 129.066 29.0303 128.893 30.0099C128.719 30.9944 128.359 31.8117 127.811 32.4617C127.269 33.1076 126.559 33.5559 125.68 33.8066C124.802 34.0524 123.773 34.0703 122.594 33.8605L118.494 33.1308L118.902 30.8218L122.626 31.4848C123.316 31.6075 123.897 31.613 124.371 31.5014C124.845 31.3847 125.219 31.1602 125.494 30.8277C125.775 30.4911 125.964 30.0504 126.06 29.5056C126.156 28.9609 126.131 28.477 125.984 28.0539C125.838 27.6258 125.563 27.2727 125.158 26.9945C124.755 26.7114 124.206 26.508 123.511 26.3844L120.963 25.9308L118.664 38.9601L115.883 38.4652ZM125.04 32.9196L127.612 40.5528L124.509 40.0006L122.005 32.3793L125.04 32.9196Z" fill="white"/>
<path d="M133.434 42.5229L139.817 28.2989L149.055 32.4796L148.085 34.6396L141.421 31.6233L139.688 35.4849L145.874 38.2847L144.905 40.4447L138.719 37.6449L136.976 41.5274L143.697 44.5688L142.727 46.7288L133.434 42.5229Z" fill="white"/>
<path d="M150.262 51.5136L147.928 49.6051L161.997 40.9708L164.696 43.1781L159.13 58.767L156.797 56.8584L161.38 44.5963L161.285 44.5192L150.262 51.5136ZM154.189 46.8284L160.553 52.0334L159.124 53.7954L152.76 48.5903L154.189 46.8284Z" fill="white"/>
<path d="M173.67 55.2783L175.592 53.8965L182.811 64.0261L180.889 65.4079L178.092 61.4838L167.355 69.2014L165.729 66.9201L176.466 59.2024L173.67 55.2783Z" fill="white"/>
<path d="M188.316 75.1348L174.101 81.5375L172.949 78.9587L187.164 72.556L188.316 75.1348Z" fill="white"/>
<path d="M192.557 87.0951L181.399 93.6317L181.433 93.7881L194.273 95.1823L194.917 98.2206L178.531 96.1059L177.808 92.6952L191.914 84.0642L192.557 87.0951Z" fill="white"/>
<path d="M179.95 107.892L195.521 108.678L195.014 118.805L192.65 118.686L193.015 111.379L188.788 111.166L188.449 117.948L186.084 117.829L186.423 111.047L182.173 110.832L181.805 118.2L179.44 118.081L179.95 107.892Z" fill="white"/>
<path d="M174.574 137.046L190.396 140.453L188.983 143.142L177.553 140.263L177.486 140.391L186.213 148.411L184.928 150.858L173.399 148.15L173.335 148.271L182.158 156.127L180.745 158.816L169.017 147.619L170.313 145.153L181.431 147.513L181.487 147.406L173.278 139.513L174.574 137.046Z" fill="white"/>
<path d="M158.016 171.593C156.864 170.371 156.104 169.107 155.738 167.803C155.372 166.505 155.362 165.253 155.71 164.046C156.054 162.843 156.72 161.771 157.709 160.83C158.698 159.888 159.802 159.276 161.02 158.992C162.238 158.715 163.485 158.794 164.759 159.228C166.033 159.668 167.245 160.498 168.394 161.716C169.547 162.938 170.307 164.197 170.673 165.495C171.039 166.8 171.051 168.054 170.707 169.257C170.359 170.464 169.691 171.538 168.702 172.479C167.713 173.42 166.611 174.031 165.396 174.311C164.178 174.595 162.931 174.516 161.657 174.076C160.383 173.642 159.169 172.814 158.016 171.593ZM160.073 169.635C160.885 170.495 161.703 171.093 162.529 171.428C163.355 171.77 164.145 171.869 164.902 171.724C165.661 171.582 166.348 171.219 166.962 170.635C167.576 170.051 167.974 169.382 168.155 168.627C168.34 167.877 168.286 167.077 167.994 166.227C167.701 165.385 167.149 164.533 166.338 163.673C165.526 162.813 164.708 162.212 163.882 161.87C163.056 161.535 162.264 161.438 161.504 161.579C160.748 161.724 160.063 162.089 159.449 162.673C158.835 163.258 158.436 163.925 158.251 164.675C158.069 165.43 158.125 166.228 158.417 167.071C158.71 167.92 159.262 168.775 160.073 169.635Z" fill="white"/>
<path d="M147.074 169.75L154.336 183.546L149.173 186.287C148.115 186.849 147.13 187.136 146.219 187.149C145.304 187.164 144.487 186.936 143.77 186.467C143.05 186.004 142.459 185.333 141.995 184.453C141.53 183.568 141.314 182.7 141.347 181.849C141.379 181.005 141.664 180.213 142.204 179.472C142.746 178.737 143.545 178.088 144.603 177.526L148.281 175.573L149.373 177.648L146.032 179.422C145.413 179.751 144.951 180.105 144.647 180.485C144.345 180.87 144.187 181.278 144.174 181.71C144.158 182.15 144.279 182.614 144.537 183.103C144.795 183.593 145.111 183.959 145.486 184.203C145.863 184.451 146.296 184.56 146.785 184.53C147.276 184.505 147.833 184.327 148.457 183.996L150.743 182.782L144.579 171.075L147.074 169.75ZM143.251 179.778L136.551 175.337L139.335 173.859L145.974 178.332L143.251 179.778Z" fill="white"/>
<path d="M130.802 177.464L134.285 192.661L131.533 193.297L129.933 186.314L129.747 186.357L125.422 194.71L122.062 195.486L126.373 187.309L118.527 180.302L121.835 179.537L127.86 185.004L129.088 182.627L128.05 178.1L130.802 177.464Z" fill="white"/>
<circle cx="109" cy="109" r="47" fill="#613FE5" stroke="white" stroke-width="2"/>
</svg>
