<svg width="34" height="34" viewBox="0 0 34 34" fill="none" xmlns="http://www.w3.org/2000/svg">
<path d="M31.6259 23.6526L31.6252 23.6529L11.9647 32.99C11.442 33.2379 10.8558 33.3191 10.2855 33.2226C9.7152 33.1261 9.18832 32.8566 8.7763 32.4507L1.34227 25.1219L1.34199 25.1216C0.92899 24.7151 0.651223 24.1912 0.546469 23.6213C0.441714 23.0513 0.515057 22.4629 0.756519 21.9361L0.756564 21.936L9.82215 2.14622L9.82224 2.14603C10.0108 1.73397 10.2959 1.37343 10.6534 1.09498C11.0109 0.816526 11.4303 0.628368 11.876 0.546446C12.3217 0.464525 12.7805 0.491258 13.2137 0.624378C13.6468 0.75748 14.0414 0.993022 14.3642 1.31104C14.3642 1.31108 14.3643 1.31112 14.3643 1.31116L32.3952 19.0925L32.3959 19.0932C32.7198 19.4113 32.9621 19.803 33.1021 20.2349C33.2421 20.6667 33.2758 21.126 33.2002 21.5737C33.1245 22.0214 32.9419 22.4442 32.6679 22.8061C32.3938 23.168 32.0363 23.4584 31.6259 23.6526Z" stroke="#613FE5"/>
</svg>
